<svg version="1" xmlns="http://www.w3.org/2000/svg" width="613.333" height="613.333" viewBox="0 0 460.000000 460.000000"><path d="M0 89v89h2.3c1.3 0 7-.4 12.8-1 5.7-.5 18.5-1.7 28.4-2.5 9.9-.8 22.5-2 28-2.5 5.5-.6 19-1.7 30.1-2.4 13.5-.9 21-1.9 22.9-2.9l2.9-1.5-4-.6c-2.1-.3-6.5-.8-9.6-1.2-3.2-.3-5.8-1.1-5.8-1.7 0-.6 2.5-.7 7.3-.2 9 .9 24.1 1.6 41.9 1.8 13.2.2 13.6.2 13.3-1.8-.1-1.1-.6-2.8-1-3.9-1-2.2-7-11.3-9.3-14-1-1.1-1.1-1.6-.4-1.2.6.4 1.2.3 1.2-.2 0-1.2-3.4-4.2-4.7-4.2-.6 0-1.3-.3-1.5-.8-.1-.4-1.9-1.5-3.8-2.5-1.9-.9-5.2-2.7-7.2-4-2-1.2-8.8-5-15-8.4-11.4-6.4-14.3-8-32.3-18.1-20.9-11.7-29-16.4-30.5-17.7-.8-.7-2.2-1.4-3-1.7-.8-.3-1-.7-.4-1.1.6-.3 2.1.1 3.4 1 1.3.9 7.4 4.2 13.4 7.3 23.7 12.1 32.1 16.6 33.5 17.8 1.2 1.2 5.5 3.3 7.1 3.6.5.1 6.3 3.4 10 5.7 3.9 2.4 15.1 7.9 16 7.9.5 0 1.9.9 3 2 1.2 1.2 2.5 1.8 3.1 1.5.5-.4 2.9.5 5.4 1.9 2.4 1.4 4.6 2.6 4.9 2.6.9 0 .7-3.5-.3-4.6-.5-.5-1.2-1.9-1.6-3.2-.5-1.6-.2-2.2 1-2.2.8 0 2 1 2.5 2.2 1.7 4.3 5.6 9.9 6.3 9.1.4-.4 1 .2 1.3 1.3.7 2.6 5.7 5.6 7.9 4.8 1.1-.5 1.8 0 2.2 1.4 1 4.1 3.1 3.3 4.3-1.9.7-2.7 1.7-5.2 2.3-5.6.6-.4.8.2.4 1.6-.5 1.9-.3 2 1 .9s1.5-.7 1.2 3.2c-.4 3.9-.2 4.5 1.6 4.5 1.6 0 1.9.6 1.7 2.8-.3 3.2 1.3 3.5 7.8 1.2 2.3-.8 5.1-1.5 6.1-1.5 2.6 0 2.4 2.5-.3 3.8-1.3.6-1.7 1.1-1 1.1 1.9.1 1.4 1.9-.9 2.6-1.6.5-1.8 1-.8 2.1 1.2 1.5 13.8 1.9 17.2.6 1.5-.7 1.4-1-1.1-3.7-7.2-7.7-19.5-18.8-18.9-17.3.4 1.2 0 2.1-1.3 2.8-2.6 1.4-3 1.3-3-1 0-1.1-.9-2.9-1.9-3.9-1.1-1.1-1.6-2.3-1.3-2.7.4-.3-.4-.1-1.7.6-1.7.9-2.6.9-3.5 0-.8-.8-.5-1.6 1.4-3.1l2.5-1.9-8.1-7.7c-11.6-11.1-13.8-13-16.5-13.8-3.3-1-6.9-3.3-6.9-4.5 0-.5.8-.7 1.8-.3 1.9.7-2.1-4.1-7.8-9.1-1.9-1.7-7.7-7.2-13-12.2-5.2-5-10.9-10.4-12.7-12-3.1-2.9-29.4-27.9-40.7-38.8-3.4-3.2-11.8-11.4-18.8-18.2L58.2 0H0v89zm53-11c0 .5-.4 1-1 1-.5 0-1-.5-1-1 0-.6.5-1 1-1 .6 0 1 .4 1 1zm3 2c0 .5-.4 1-1 1-.5 0-1-.5-1-1 0-.6.5-1 1-1 .6 0 1 .4 1 1zm4 2c0 .5-.4 1-1 1-.5 0-1-.5-1-1 0-.6.5-1 1-1 .6 0 1 .4 1 1zm138 62.9c0 .6-.4 1.3-1 1.6-.5.3-1-.1-1-.9 0-.9.5-1.6 1-1.6.6 0 1 .4 1 .9zM63 .4c0 .3 2.8 3.1 6.2 6.3 3.4 3.2 7.6 7.1 9.3 8.8 1.7 1.6 7.8 7.3 13.4 12.5 10.4 9.5 21.1 19.5 35.1 32.9 4.1 3.9 7.8 7.1 8.2 7.1.7 0-20-20.4-38.6-38.1-4.9-4.6-13.9-13.2-20-19.1C67.1 1.6 63-1.5 63 .4zM76.8 3c1.7 1.6 3.5 3 4 3s1.2.9 1.5 2c.3 1.1 1 2 1.6 2 1.9 0 1.2-2-1.5-4.7-1.5-1.4-2.2-2.9-1.7-3.4.5-.5 8.6 7.1 18.8 17.8C109.4 30 119.1 40 121 42c1.9 2 8.5 8.9 14.5 15.3 6.1 6.5 13 14 15.5 16.6 2.5 2.6 6.7 7.2 9.5 10.2 5.9 6.5 10.5 10 5.6 4.4-4-4.6-18-20.1-23.1-25.5-1.9-2.1-7.3-7.9-12-13.1-4.7-5.1-9.6-10.5-11-11.9-9.7-10.4-15.5-16.7-22.1-24.1C85.6.4 85.2 0 83.2 0c-1 0-2.4.6-3.1 1.2-1.1 1-1.4 1-1.8 0C78 .6 76.9 0 75.8 0c-1.7 0-1.6.3 1 3zM93.6 2.5c.9 1.4 2.2 2.9 2.8 3.3.6.4 2.4 2.2 3.9 4 1.5 1.9 2.7 3.1 2.7 2.7 0-.4 2 1.7 4.5 4.7 2.4 2.9 6.9 7.7 9.8 10.7 4.7 4.7 5.7 5.2 7.3 4.2 1.8-1.1 1.8-1.2-.2-.6-1.5.4-2.6-.3-4.2-2.5-2.4-3.2-2.8-4.5-1.2-3.5.7.4.9-.2.4-1.9-.9-3.6.7-3.3 3.6.6 1.3 1.8 6.9 8.7 12.5 15.3 5.5 6.6 11.6 14 13.6 16.5s5.9 6.7 8.7 9.5c2.9 2.7 5.2 5.6 5.2 6.2 0 .7.7 1.3 1.5 1.3s1.5.4 1.5.9 4.3 5.4 9.5 10.8c9.8 10 10.7 10.2 7.2 1.3-1.9-5-6.6-23.4-6.1-23.9.3-.3.9.1 1.3.8.7 1.1.9 1.1 1.3 0 .3-.8.7-1.2 1-.9.2.3 3.3 9.4 6.9 20.2 3.5 10.9 6.7 19.8 7.1 19.8.4 0 .5-1.4.2-3-.7-3 0-3.6 2.3-2.2 1.2.8 2.5 5.6 4 14.5.3 2.1 1.4 4.2 2.3 4.7 1.5.8 1.9.4 2.4-2.2.3-1.7.6-5 .6-7.4 0-4.4 1.5-6.8 2.3-3.7.4 1.5.6 1.5 1.2-.5 1.9-5.8 3.2-.7 2.6 10.3-.2 3.9.2 5.5 1.6 6.7 1.9 1.8 2 1.8 5.8 1.8 3.1 0 3.2 1.3.3 2.8-1.3.6-1.7 1.1-1 1.1.6.1 1.2 1 1.2 2.1 0 1.6 1.4 3 5.8 5.6.1.1.4 1.1.7 2.2.5 3-1 3.6-4.2 1.5s-2.5-.5 1.8 4.2c1.6 1.6 5.8 6.3 9.5 10.3l6.7 7.2 6.6-.6c3.6-.3 7.7-1.4 9.1-2.2 1.7-1.2 4.5-1.6 9-1.5 6.6.2 14.1-.6 28.5-3.3 14.3-2.6 13.6-2.3 9-4.6-2.2-1.2-6.1-4.2-8.6-6.7s-5.1-4.6-5.7-4.7c-3-.3-3.4-.5-2.8-1.9.3-.8-.4-2.1-1.6-2.9-1.2-.9-1.8-1.9-1.4-2.3.5-.5 1.1-.2 1.3.4.3.7 1.2 1.3 2.2 1.3.9 0 2.8.7 4.1 1.6 2.1 1.3 2 1.1-.5-1.3-1.6-1.6-3.9-3.9-4.9-5.1-3-3.4.4-2.8 5 .9 8.1 6.4 23.9 17.9 24.6 17.9.5 0 .8-.3.8-.8 0-3-2.2-24-3.1-29.5-.6-3.8-1.2-8.1-1.4-9.5-.1-1.5-.6-5.6-1-9.2-.4-3.6-.4-6.2-.1-5.9.9.8 3.6 11.5 3.6 14.1 0 1.2 1.5 9.6 3.3 18.7 3.1 15.9 3.2 16.4 3.7 11.1.4-4.5.8-5.4 2.2-5.2 1.4.2 2.1-.9 3-4.4.8-2.8 2-4.9 3-5.1 1.6-.5 3.2-5.3 1.7-5.3-.5 0-.9-.7-.9-1.5s.6-1.5 1.3-1.5c1.4 0 3.7-6.9 6.2-18.5.7-3.3 1.6-6.8 2-7.8.5-1.2.2-1.7-.9-1.7-2.1 0-2-1.6.2-3.2 2.6-1.8 4.2-5.1 4.2-8.8 0-3.4-.8-3.5-7-.8-5.2 2.2-6.6 2.7-10.3 3.3-2.1.3-5.9 1.5-8.4 2.6-4.9 2.1-9.4 2.2-10 .2-.3-.7.3-.9 1.6-.6 1.2.3 2.7.1 3.4-.5.6-.5 2.9-1.5 5-2.2 3.1-1 3.6-1.4 2.6-2.6-.9-1.1-.6-1.6 1.2-2.3 2-.8 1.6-1-2.4-1-2.9-.1-4.6-.5-4.2-1.1.3-.6 1.7-1 3-1 3.6 0 6-1.1 4.4-2.1-.9-.5-.5-1.1 1.4-2 1.5-.7 2.7-1.6 2.7-2.1 0-.4-5.5-.9-12.2-.9-16.8-.3-19.6-.7-13.3-2 2.2-.4 7.8-.8 12.4-.8 4.7-.1 8.1-.5 7.5-.9-.5-.5-6.5-3.1-13.4-5.7-6.9-2.7-12.9-5.2-13.4-5.7-1.6-1.4 1.5-.9 8.2 1.2 3.5 1.1 6.8 1.8 7.2 1.5.5-.3 3.9.6 7.6 1.9 3.8 1.4 6.9 2.4 7 2.3.8-.9-2.2-5-5.3-7.3-2.1-1.6-5.4-4.2-7.4-5.9-1.9-1.6-4.6-3.9-6-5C287.4 16 278.8 7.9 281.7 8.6c1.2.3 3 1.4 4.2 2.5 1.1 1 2.4 1.9 2.9 1.9s1.5.7 2.2 1.5c.7.8 3.5 3.1 6.4 5.1l5.1 3.7-3-3.4c-1.6-1.9-4.1-4.4-5.5-5.6-1.4-1.1-2.2-2.4-1.8-2.8.7-.7.9-.6 7.3 4.7 6.1 5.1 15.1 11.8 15.8 11.8.4 0 1.6.8 2.6 1.7 3.2 2.9 4.8 4.2 9.3 7.2 2.4 1.6 6 4.8 8.1 7 2.1 2.3 4.5 4.1 5.2 4.1.7 0 1.8.7 2.5 1.5 1.4 1.7 3.5 2.1 2.4.4-.3-.6 0-1.5.7-2 1-.6.3-1.7-3.1-4.6-2.5-2.1-5.4-4.9-6.5-6.3-1.1-1.4-6.2-6.5-11.2-11.5-6.5-6.3-9.3-9.8-9.3-11.4 0-1.9-.3-2.1-1.4-1.2-1.1.9-1.5.8-2-.4-.3-1-.2-1.3.5-1 .5.4 1.6.2 2.3-.4.9-.8 2.5.2 6.2 3.7 5 4.7 17.4 15.6 20.7 18.1 2.8 2.2 1.9-.2-1.6-3.9-1.7-1.9-5.1-6-7.5-9-2.3-3-6-7.3-8.2-9.5-2.3-2.2-5.1-5.5-6.3-7.2L316.5 0H92l1.6 2.5zM107 5.6c0 .8-.4 1.2-1 .9-.5-.3-1-1-1-1.6 0-.5.5-.9 1-.9.6 0 1 .7 1 1.6zm-2 2.8c0 .3-.4.8-1 1.1-.5.3-1 .1-1-.4 0-.6.5-1.1 1-1.1.6 0 1 .2 1 .4zm12.8 10.5c.3.8-.1 1.2-.9.9-.7-.2-1.5-1-1.7-1.7-.3-.8.1-1.2.9-.9.7.2 1.5 1 1.7 1.7zm-3.3 1c.3.5.1 1.2-.5 1.6-.5.3-1-.1-1-.9 0-1.8.6-2.1 1.5-.7zm3 3.1c.3.5.1 1-.4 1-.6 0-1.1-.5-1.1-1 0-.6.2-1 .4-1 .3 0 .8.4 1.1 1zm191.7 59.5c.3 1.4.1 2.8-.3 3.1-.5.3-.9-.9-.9-2.5 0-3.8.6-4 1.2-.6zM328 .6c0 .6 14 17.4 17 20.4 1 1 2.7 2.1 3.8 2.4 1 .4 2.4 2.1 3 3.9 1.1 3 1.1 2.9.6-1.6-.3-2.7-.8-5.9-1-7-.9-4.4-1.2-17.7-.4-17.7.5 0 1.3 1.9 1.8 4.2l1 4.3.1-4.8.1-4.7h-13c-7.1 0-13 .3-13 .6zM356.8 6.5c.2 3.6.8 6.5 1.3 6.5s.9-.9.9-1.9c0-1.1.5-2.3 1-2.6.6-.3 1-2.4 1-4.6 0-3.4-.3-3.9-2.2-3.9-2.2 0-2.3.3-2 6.5zM372.7 1.3c-.3.8-.8 4-1.2 7.3-.3 3.2-.8 7.4-1.1 9.3-.5 3.1-.4 3.3 1 2.2 1.9-1.6 3.6-5.3 6.4-13.9l2-6.2h-3.3c-1.8 0-3.5.6-3.8 1.3zM390 6c-1.6 4.2-2.1 7.3-1.7 10 .4 3.2.2 4-1 3.8-1.7-.3-4.3 6.1-4.3 10.9 0 2.4.4 3.1 1.4 2.7.9-.3 1.7.3 2.1 1.7.8 2.3.8 2.3 2.2-.4.7-1.5 2-2.7 2.8-2.7.8 0 1.5-.8 1.5-1.8 0-.9 1.6-4.9 3.5-8.7 1.9-3.9 3.5-7.6 3.5-8.3 0-.6.3-1.2.8-1.2 1 0 3.2-5 3.2-7.1 0-1 .5-2.1 1-2.4 2.6-1.6.4-2.5-5.9-2.5h-6.9L390 6zM422.7 11.7c-4.2 6.5-8 12.3-8.5 12.9-.5.5-1.5 2.1-2.2 3.5-1.2 2.4-1.2 2.4.6.4 1.1-1.1 4.1-5 6.9-8.5 2.7-3.6 5.5-7.1 6.2-7.8.7-.7 1.3-1.7 1.3-2 0-.4 1.6-2.5 3.5-4.7 4-4.6 4.2-5.5 1.6-5.5-1.3 0-4.2 3.5-9.4 11.7zM436.8 1c-.1.5-1.8 2.9-3.6 5.2-7.4 9.7-12.2 16.6-12.2 17.7 0 .6-.4 1.1-1 1.1-1.1 0-4.3 5.7-4.5 8.1-.1.9-1.1 2.9-2.3 4.4-2.8 3.5-2.8 5.9-.1 2.5 1.1-1.4 3.7-4.5 5.7-7s4.9-5.8 6.4-7.5c3.4-3.8 7.6-9 11-13.5 1.4-1.9 4-5 5.7-6.9 1.7-1.9 3.1-3.8 3.1-4.3 0-1.2-7.8-1-8.2.2zm-12.6 21.2c-.7.7-1.2.8-1.2.2 0-.6.3-1.4.7-1.7.3-.4.9-.5 1.2-.2.2.3-.1 1.1-.7 1.7zM452.2 4.3C441 18.5 432 29.9 424.1 39.5c-4.9 6-8.8 11.1-8.7 11.2.1.1 3.5.3 7.6.4 4.1.1 8.1.6 8.8 1.1.6.6 2.6.8 4.2.4 2.2-.4 3-.2 3 .8 0 .8.6 1.7 1.3 2 .8.4.7.5-.3.5-5.9-.4-26.8.5-24.2 1 5.3 1 3.7 2.6-2.8 2.9-4.7.2-6.2.7-7 2.2-.7 1.4-.7 2 0 2.1.5.1 1.5.2 2 .3.6 0 1.1.5 1.3 1.1.1.5-1.7 1.3-4.1 1.6-4 .5-5.7 1.8-8.3 6.2-1.1 1.8-.5 3.7 1.2 3.7 1 0 11 4.6 26.2 12 3.7 1.8 6.7 3.7 6.7 4.2 0 1.1.1 1.1-9.1-2.2-5.7-2.1-9.2-2.9-11.1-2.5-1.7.4-3.5.2-4.4-.6-3.1-2.5-2.3 0 1.2 3.6 8.9 9.5 17.5 19.7 17 20.3-.4.3-2.1-.9-3.9-2.6-3.9-3.8-4.7-4-4-1 .6 2.2.6 2.2-1.5-.2-1.7-2.1-1.8-2.6-.6-3 1.2-.4.9-1.1-1.3-3-2.1-1.9-2.4-2-1-.3 1.9 2.2 1 3.7-1.5 2.8-.7-.3-3.6-3.1-6.3-6.2-2.8-3.2-7.1-8-9.8-10.8l-4.8-5-3.4 4c-1.9 2.2-3.5 4.6-3.5 5.3 0 .8-1.2 2.6-2.7 4.1-5.8 5.5-7.4 8.4-6.8 11.6.4 1.6.8 4.3 1 5.9.7 4.7 1.6 6.6 3.1 6.6 1.7 0 1.8 1.6.2 2.7-1.7 1-1.7 7.6 0 8.6.7.5 1 1.2.7 1.8-.4.5.1.9 1 .9 2.7 0 5.5-2 5.5-3.9 0-1.4.6-1.8 2.5-1.5 1.4.1 3.2.8 4 1.4 1.5 1.2 5.5-.2 5.5-2 0-2 7.5-8 9.3-7.4 1 .3 2.4.1 3.2-.6 2.4-2 2.9.9.6 3.4-3 3.2-2.7 5 .7 4.2 1.5-.3 5.3-1.1 8.5-1.7 5.3-1 6.1-1.5 8.4-5.3 1.4-2.2 3.1-4.4 3.7-4.8 1.8-1.2 2.8.3 1.3 2-.8 1-2 2.7-2.6 3.9-1.3 2.6-2.6 2.6 14.3-.4 9.6-1.7 10-1.8 12.7-5.7l2.9-3.9V0h-2.2c-1.5.1-3.5 1.6-5.6 4.3zM387.5 94c-.3.5-1 1-1.6 1-.5 0-.9-.5-.9-1 0-.6.7-1 1.6-1 .8 0 1.2.4.9 1zm51.5 13.9c0 .6-.4 1.3-1 1.6-.5.3-1-.1-1-.9 0-.9.5-1.6 1-1.6.6 0 1 .4 1 .9zm-2.7 4.6c-.6 1.6-1.6 1.9-2.6.8-.9-.8 1.3-3.4 2.4-2.8.4.3.6 1.2.2 2zM428 114c0 .5-.4 1-.9 1-.6 0-1.3-.5-1.6-1-.3-.6.1-1 .9-1 .9 0 1.6.4 1.6 1zm-47 16c0 .5-.4 1-1 1-.5 0-1-.5-1-1 0-.6.5-1 1-1 .6 0 1 .4 1 1zM406 47.1c0 .5.5.7 1 .4.6-.3 1-.8 1-1.1 0-.2-.4-.4-1-.4-.5 0-1 .5-1 1.1z"/><path d="M326.8 56.7c.6.2 1.8.2 2.5 0 .6-.3.1-.5-1.3-.5-1.4 0-1.9.2-1.2.5zM137.6 70.3c.3 1 .9 1.5 1.2 1.2.3-.3 0-1.1-.7-1.8-1-.9-1.1-.8-.5.6zM347 84.9c0 .5-.3 1.6-.6 2.5-.4 1.1-.1 1.6 1 1.6 1 0 1.6-.9 1.6-2.5 0-1.4-.4-2.5-1-2.5-.5 0-1 .4-1 .9zM344.5 92.7c-.9 3.2-1 3.7-2 7.8-.6 2.8-.5 2.8 1.9-1 1.4-2.2 2.6-4.8 2.6-5.8 0-.9 0-2 .1-2.4 0-.4-.4-.9-.9-1.1-.5-.1-1.3 1-1.7 2.5zM367.5 113.3c-.4 1-.5 2.1-.1 2.4 1 1 1.8-.4 1.3-2.4-.4-1.7-.4-1.7-1.2 0zM367.1 122.6c-3.5 5.4-3.3 6.9.3 3.5 1.4-1.3 2.9-2 3.5-1.7.7.5.9-.4.4-2.6-.3-1.8-.7-3.5-.9-3.7-.2-.2-1.7 1.8-3.3 4.5zM370 128l-2.5 1.9 2.9 1.1c3.4 1.3 3.4 1.3 2.7-2.2l-.6-2.7-2.5 1.9zM457.3 133.4c-2.9 3-2.9 3.6.2 3.6 2.1 0 2.5-.5 2.5-3 0-1.7-.1-3-.2-3-.2 0-1.3 1.1-2.5 2.4zM442 133.1c0 .5-.5.7-1.1.3-.8-.4-.9.1-.4 1.6s.3 2-.3 1.6c-.6-.3-1.3-.2-1.7.4-.3.5 0 1 .8 1 1.7 0 5.9-4.4 5-5.3-1-1-2.3-.8-2.3.4zM428 134.2c-5.2.9-9 3-9 5 0 .9 10.3 1.1 13.6.2 1.1-.3 2.8-1.9 3.8-3.5 1.7-2.9 1.7-2.9-.6-2.8-1.3.1-4.8.6-7.8 1.1zM414.3 137.2c.1.9-1.7 1.4-6 1.6-4.1.2-6.6.8-7.5 1.9-1.2 1.4-.6 1.5 5.7.8 7.9-.8 8.1-.9 9.5-3.6.9-1.5.7-1.9-.5-1.9-.8 0-1.4.6-1.2 1.2zM383.4 141.1c-2.8.4-6.1 1.3-7.5 1.9-3 1.3 17.4.7 20.6-.6 1.8-.8 1.7-.9-1-1.5-3.9-.9-6-.8-12.1.2zM452 142.1c0 .4-1 .9-2.2 1.3-1.3.3-3.4 2.2-4.8 4.3-2.3 3.5-4.2 5.7-15.5 18.8-4.9 5.6-9.5 12.1-9.5 13.4 0 .5-.7 1.1-1.5 1.5-.8.3-1.5 1.4-1.5 2.5s-.9 2.5-2 3.1c-1.1.6-2 1.5-2 1.9 0 1.4 2.9.7 5.1-1.3 1.5-1.3 2.4-1.4 3.4-.6.7.6 1.9.8 2.8.4 1-.3 1.7.1 2 1.3.4 1.5.5 1.5.6.2 0-.9 1.3-2 2.9-2.4 1.5-.4 3.4-1.4 4.3-2.3.9-.9 6.6-6.4 12.8-12.1 6.1-5.7 11.1-11 11.1-11.7 0-.8.5-1.4 1-1.4.6 0 1-3.5 1-8.4v-8.4l-4-.4c-2.2-.2-4-.1-4 .3zM164 142.5c0 .2 2.1 2.6 4.6 5.2 3.9 4 4.4 4.3 3.1 1.8-1.3-2.6-7.7-8.4-7.7-7zM424.5 146c.4 1.3.3 2-.2 1.7-.5-.3-1 1.1-1.1 3.1l-.3 3.6 2.1-1.9c3.8-3.4 4-4.8 1.3-6.9-2.5-1.9-2.5-1.9-1.8.4zM415.2 147.7c-.8 1.1-1 1.2-.6.3 1.1-2.7-6.5 6.4-8.1 9.7-.8 1.8-2.6 4.5-3.9 6-3.3 4-4.9 7.2-5.7 11.8-.4 2.2-1.2 6-1.8 8.5-.5 2.5-.7 4.7-.5 4.9 1.6 1.7 16.4-17.8 18.8-24.7.7-2.1 1.9-3.7 2.6-3.7.7 0 2.1-2.7 3.1-6 2.3-7.3 2.2-6.8.4-6.1-.9.3-1.5 0-1.5-.9 0-2-1.2-1.9-2.8.2zM403.3 149.7c-4 .5-4.9 2-5.8 9.8l-.7 6 2.9-4c4.5-6.1 8.4-12.5 7.6-12.3-.5 0-2.3.3-4 .5zM378.5 153.7c-16.5 2.2-15.8 2-13.7 4.1 1 1 2.7 2.2 3.7 2.6 2.4.9.9 2.4-3 2.8l-3 .3v31l4.4.9c3.6.8 4.5.7 5.3-.7 1-1.9 3.8-2.3 3.8-.5 0 .6.9 0 2.1-1.3 1.4-1.6 1.9-3.2 1.5-5-.3-1.5-.2-3 .2-3.4.4-.3 1.2-2.4 1.7-4.6 1.1-4.6 2.7-5.2 3.1-1.3.4 4 1 3.9 4.1-.8 2.7-4.2 4.3-10.1 5.8-20.6l.7-5.2-2.9.1c-1.5.1-7.7.8-13.8 1.6zM301.8 157.7c.7.3 1.6.2 1.9-.1.4-.3-.2-.6-1.3-.5-1.1 0-1.4.3-.6.6zM296.8 158.7c.6.2 1.8.2 2.5 0 .6-.3.1-.5-1.3-.5-1.4 0-1.9.2-1.2.5zM281.5 167.5c-.5.3-5.9 1.1-12 1.9-11.3 1.5-15.5 2.3-16.1 2.9-.2.2.6 1.2 1.9 2.3 1.9 1.6 3.3 1.8 10.2 1.3 4.4-.3 7.1-.6 6-.7-1.7-.2-1.8-.4-.5-1.2 2.4-1.6 5.3-1.2 4.6.5-.5 1.3.1 1.5 3.7 1 2.3-.4 4.4-1.1 4.5-1.6.2-.5 1-.9 1.7-.9s3.2-1 5.5-2.2c3.4-1.9 3.8-2.4 2.3-2.9-1.9-.8-10.1-1-11.8-.4zM155.8 170.7c.7.3 1.6.2 1.9-.1.4-.3-.2-.6-1.3-.5-1.1 0-1.4.3-.6.6zM145.5 172c-.8 1.3.5 1.3 2.5 0 1.3-.8 1.3-1-.2-1-.9 0-2 .4-2.3 1zM345.3 175.1c-1.1 2.1-4.3 13.6-4.3 15.3 0 .3.6.6 1.4.6 1.9 0 4.8-10 4.4-14.8-.3-3.5-.3-3.5-1.5-1.1zM53.5 179.5c-13.2 1.3-30.6 2.8-38.8 3.5L0 184.3v3.3c0 3.2.1 3.3 3.8 2.8 5.3-.8 6.4-1.2 5.7-2.4-.3-.5.1-1 1-1s1.3.4 1 1c-.4.6.7 1 2.5 1 2.3 0 3.1-.4 2.7-1.4-.6-1.6 4.9-2.4 37.3-5.6 29.2-2.9 30-3 30-4.1 0-1.2-1.8-1.1-30.5 1.6zM277.5 180.1c-2.7 1.2-7.4 2.1-10.3 2.2l-5.3.1 5.1 4.9c4.8 4.7 5.2 4.9 6.5 3.1.7-1 1.1-2.2.9-2.6-.2-.3 1-1.7 2.7-2.9 2.9-2.1 3-2.3 1.3-3-1.6-.6-1.5-.8.8-.8 3.3-.1 5.8-1 5.8-2.2 0-1.3-1.9-1-7.5 1.2zM355.8 185c-.3 3.6-.5 6.7-.2 6.9 1.1 1.1 1.5-1.2 1.2-7l-.3-6.4-.7 6.5zM454.1 185.6c-4.7 3.6-3.7 4.5 2.6 2.2 2.4-.9 3.3-1.8 3.3-3.5 0-3-.6-2.9-5.9 1.3zM228.6 183.9c-.4.5.9 1.9 2.7 3 1.9 1.1 5.1 4 7.3 6.4 4.4 4.9 7.2 6.4 8 4.3.4-.9 1.6-1.2 3.5-.9 1.8.3 2.9 0 2.9-.8 0-1.5-3-3.8-5.1-3.9-.9 0-2.2-.7-2.9-1.5-.8-.9-2.1-1.3-3.4-1-1.6.5-1.8.4-.6-.4 1.2-.8.9-1.2-1.5-2-1.7-.6-4.3-1.7-5.8-2.6-3.3-1.7-4.4-1.9-5.1-.6zM77.5 185.5c-6 .7-16.6 1.8-23.5 2.4-6.9.6-17.9 1.8-24.5 2.5-6.6.8-15.9 1.8-20.7 2.1l-8.8.7v6.1l7.5-.6c4.1-.4 11.9-1.5 17.2-2.6 5.4-1.1 13.4-2.5 17.8-3.1 4.4-.7 13.9-2.3 21-3.6 7.2-1.4 15.6-2.7 18.8-3.1 3.2-.3 6-1 6.3-1.4.3-.5.4-.8.2-.8-.2.1-5.2.7-11.3 1.4zM387.6 186.4c-2 3.1-2 3.6-.2 3.6.7 0 1.6-1.2 1.9-2.8.7-3.6.3-3.8-1.7-.8zM279 186.7c-2 1.2-2.5 2.3-2.6 5.9 0 2.4.1 4.4.2 4.4.6 0 5.6-11.1 5.2-11.5-.2-.2-1.4.3-2.8 1.2zM195.7 186.7c-1.3.3-1.6 1-1.1 2.6 1 3.6 2.1 4.1 8.9 4.5 3.6.2 6.5.9 6.5 1.4 0 .6.7.8 1.5.4.8-.3 1.5-.2 1.5.3s-.7 1.4-1.5 2.1c-1.2 1-1.8 1-3 0s-1.8-.9-3.1.5c-1.2 1.2-2.7 1.5-5.8 1.1-2.2-.3-3.5-.3-2.8 0 .6.3 1 1 .6 1.5-.3.5-.2.9.3.7.4-.1 2.6.3 4.8 1 2.2.6 6.5 1.3 9.5 1.7 3 .3 8 1 11 1.5s6.6 1.1 8 1.3c1.4.3 3.4.8 4.5 1.2 3.3 1.2-4.6-5.6-8.2-7.1-1.8-.8-3.3-1.7-3.3-2 0-.3.6-.2 1.3.2 1.7 1 1.1.5-6.8-6.3-6.9-5.9-11.3-8.6-9.9-6 .5.9.4.9-.7-.1-1.2-1.1-8.4-1.5-12.2-.5zM209 201c0 .5-.7.7-1.5.4-.8-.4-1.2-1-.9-1.5.6-1.1 2.4-.2 2.4 1.1zm10 1c1.1 0 2 .5 2 1.1 0 1.6-6.2.1-7.7-1.9-.9-1-1.3-1.1-1.3-.3 0 .7-.5.9-1.1.5-.8-.4-.7-.9.2-1.5.8-.5 2.3-.2 3.6.6 1.2.8 3.1 1.5 4.3 1.5zM334.6 187.5c-.9 2.6-.7 3.2.5 1.2.6-1 .9-2.1.6-2.3-.2-.3-.7.2-1.1 1.1zM218.4 188.2c-.3.4-.1.8.5.8.5 0 3.3 2.1 6.2 4.7 2.9 2.7 5.6 4.7 6.1 4.5.4-.1.8.4.8 1 0 .7 1.2 2.2 2.5 3.3 1.4 1.1 3.6 3 5 4.2 1.3 1.2 3.6 2.5 5.1 2.9 2.5.7 2.6.6 1.3-1.2-.8-1.1-5.2-5.5-9.9-9.9s-9.1-8.7-9.8-9.7c-1.3-1.7-6.8-2.2-7.8-.6zM181.6 188.8c-.9 1.4 2.1 3.5 4 2.8.8-.3 1.4-1.2 1.2-1.9-.6-1.5-4.4-2.2-5.2-.9zM456.5 193c-.4.6-1 .8-1.5.5-1.1-.7-6.2 4-5.3 4.8.3.4-.1.7-1 .7-1.5 0-8.7 3.7-9.7 5.1-.3.3-1.2.8-2 1.1-.8.3 1.4 1.4 5 2.6l6.5 2-9.1-.1c-8.9 0-9.3.1-13.2 3.1-2.2 1.8-4.4 3.2-5 3.2-.6 0-1.2.4-1.4.8-.1.5-2.5 2.3-5.1 4.1-5.2 3.5-5.3 4.5-.6 4.7 1.6.1 6.9.5 11.7 1 4.8.5 9.3.8 10 .7.6 0 1.2.2 1.2.6 0 1.5-1.3 2-2.9 1.2-.9-.5-3.6-.3-6.3.4-2.9.7-4.9.8-5.1.2-.1-.5-4.8-.9-10.4-.9-9.5 0-10.3.1-13.7 2.7-6.6 5-10.6 9.1-10.6 10.8 0 .9-.4 1.7-1 1.7-.5 0-1 .7-1 1.5s.4 1.5 1 1.5c1.7 0-.1 2.8-2.1 3.3-1 .3-1.9 1.3-1.9 2.3 0 .9.3 1.5.6 1.2.3-.3 1.6.4 2.9 1.6 1.3 1.1 7.2 4.5 13.2 7.5 5.9 2.9 11.9 6 13.3 6.7 5.9 3.4 13.5 6.4 16.2 6.4 1.6 0 2.7-.4 2.4-.9-.4-.5.3-.7 1.4-.4 1.2.3 2 0 2-.7s.7-1 1.5-.6c.9.3 3.5-.1 5.8-1 2.3-.8 4.7-1.6 5.2-1.8.6-.2 1.7-.6 2.5-.9.8-.3 3.3-.9 5.5-1.4l4-.9.3-37.7c.2-32.4 0-37.7-1.2-37.7-.8 0-1.8.5-2.1 1zm.4 36.6c.2.2-1.2.4-3.3.4-2.2 0-3.5-.4-3.1-1 .5-.9 5.2-.4 6.4.6zM120 194.1c-2.5.4-12.6 1.5-22.5 2.3-16.3 1.4-36.5 4.4-81.8 12.3L0 211.4v77.7c0 61.3.3 77.8 1.3 78.2.9.4.9.6 0 .6-1 .1-1.3 5-1.3 21.1 0 11.5.2 21 .4 21 .3 0 3.5-1.1 7.3-2.4 3.7-1.3 11.5-3.8 17.3-5.6 5.8-1.7 13-4 16-5 3-1.1 10.9-3.5 17.5-5.5 19.7-6 49.4-15.5 58-18.5 4.4-1.6 15.4-5.2 24.5-8.1 9.1-2.8 17-5.6 17.5-6.2 1.4-1.3-3.9-.1-17 3.9-11.4 3.5-17.2 4.3-15.9 2.2.4-.7.3-.8-.4-.4s-1.2 1.4-1.2 2.2c0 1.7-.5 1.7-3.2.3-1.3-.7-1.8-.7-1.4-.1 1 1.6-1.3 2.5-2.9 1.2-1-.8-1.9-.8-3.4-.1-2.4 1.3-6.8 1.4-7.5.2-.6-1 11.5-4.9 54.9-17.8 6.6-1.9 12.9-3.9 14-4.3 1.9-.7 1.9-.8.2-1.5-1-.4-6.9.2-13 1.4-6.2 1.1-12 2.1-12.9 2.1-1.8 0-5.5 1.1-38.3 11.5-16.7 5.3-20.5 6.3-26.3 7-1.5.2-5.6 1.3-9 2.4-4.8 1.6-6.7 1.9-8.8 1.1-3.1-1.2-9.5-.3-7.4 1 .7.4-1 .8-3.7.8-2.8 0-5.9.4-6.9 1-2.7 1.4-10.8 2.6-10.1 1.5.3-.5 2.3-1.4 4.4-2.1 4.1-1.1 19.6-5.8 30.3-9.1 3.6-1.1 9.1-2.7 12.3-3.6 3.1-.9 5.7-1.7 5.7-1.9 0-.1-2.2-.2-4.9-.2-2.8 0-4.8.3-4.5.7.2.4-.6.7-1.9.8-22.1.6-28.7 1-29.6 1.5-1 .7-26.1 4.6-29.1 4.6-.8 0-1-.3-.5-.9 1-.9 2.9-1.2 24.5-4.5 5.8-.9 15.5-2.5 21.5-3.6 6.1-1.1 18-3.1 26.5-4.5 23.5-4 27-4.7 27-5.7 0-.5-.4-.7-.9-.4-2 1.3-18.7 3.4-19.5 2.5-.6-.5 0-.9 1.6-.9 1.5 0 3-.5 3.3-1 1.2-1.9-2.8-2.3-11.4-1.2-4.7.7-8.9.8-9.4.3-.9-.9 6.6-3.1 10.7-3.1 2.7 0 8.4-1.2 17.1-3.6 4.7-1.3 4-1.3-11.7-1.1-9.1.1-16.9-.1-17.2-.4-.7-.7 5.7-1.3 36.9-3.5 12.1-.8 24.9-1.9 28.5-2.4 3.6-.5 10.1-1 14.5-1 4.4-.1 12.4-.9 17.8-1.9 10.6-1.9 13.3-3.6 17.1-10.9.9-1.8 2.5-3.8 3.6-4.5 1.1-.6 2-1.5 2-2 0-.9 9.9-14.6 14.4-19.8 4-4.6 3.9-4.5 18.2-22.9 13.2-17 24.6-33.2 23.9-33.9-.3-.2-1.4.8-2.6 2.2-1.1 1.5-2.8 2.7-3.7 2.7-.9 0-5.7 5-10.7 11-8 9.7-11.5 12.8-11.5 10.1 0-.4 1.6-2.9 3.5-5.5 2-2.5 3.4-4.6 3.1-4.6-1.3 0-5.6 2.4-5.6 3.2 0 .4-.7.8-1.5.8s-1.5-.5-1.5-1.1c0-.6-.7-.8-1.6-.5-.8.3-1.2.2-.9-.4.3-.6 1.3-1 2.1-1s1.4-.5 1.4-1c0-.6.7-1 1.5-1s1.5-.6 1.5-1.3c0-.6 2.2-2.8 4.8-4.7 2.6-1.9 5.6-4.3 6.7-5.3 2-1.8 2-1.8-.5-.9-4.9 1.9-8 3.9-7.2 4.7.4.5-.2.5-1.3 0-1.1-.4-2.4-.7-3-.7-4.3 0-31.9 7.2-64 16.8-4.9 1.4-11.5 3.2-14.5 3.9-3 .7-9.3 2.4-14 3.8-17.6 5.3-53.4 14.7-56 14.7-2.6 0-.6-2 2.7-2.6 2-.4 4.8-1.3 6.2-2.1l2.6-1.5-2.5.5c-1.4.3-4.2 1-6.3 1.5-2 .6-3.9.6-4.2.2-.7-1.2.6-1.9 5.7-3 5.7-1.2 27.2-7.5 32.3-9.4 2.2-.8 4.6-1.5 5.4-1.6 1.6 0 17.4-4.7 29.1-8.5 4.1-1.3 9.3-2.8 11.5-3.4 2.2-.5 10.3-2.5 18-4.6 7.7-2 15.1-3.9 16.4-4.1 1.3-.3 3.6-1.1 5.2-1.9 1.5-.8 3.6-1.5 4.5-1.5 1.7 0 13.9-3.5 17.9-5.1 1.7-.7 1.6-.8-.8-.8-1.6-.1-2.6-.5-2.2-1.1.3-.6.4-1 .2-1-.8 0-12.4 2.2-13.9 2.6-1 .3-1.8.1-1.8-.3 0-1.2 12.2-4.6 26.2-7.4 5.9-1.2 10.5-2.6 10.2-3.1-1-1.6-14.9-.6-24.4 1.9-11.7 3.1-17.3 4.2-22.5 4.7-2.2.3-9.2 1.4-15.5 2.5-6.3 1.2-14 2.6-17 3.1-11.1 2-22.8 4-32.8 5.9-5.6 1-10.5 1.5-10.7 1-.3-.4.1-1 .7-1.2 2.9-1.2-3.6-.6-13.8 1.3-15.7 2.9-21.8 3.5-21 2.1.4-.6 2.2-1.1 4.1-1.1 1.9 0 4.6-.5 6.2-1.1 1.5-.6 5.3-1.5 8.3-2 3-.6 10.7-2.1 17-3.4 6.3-1.3 18.9-3.8 28-5.5 26.9-5.1 36.4-7.1 37.4-8 .9-.9-20.6-.6-35.9.5-4.4.3-8.6.1-9.3-.3-1.6-1.1 2.4-1.7 24.1-3.3 8.6-.7 15.7-1.5 15.7-1.8 0-.3-4.1-.7-9.1-.9-6.7-.3-9.4 0-10 .9-.6 1.1-1.1 1-2.6-.2-1-.9-3.6-1.6-5.8-1.7-8.4-.4-15.5-1.4-14.9-2.3.3-.5 5.1-.6 11.4-.3 10.8.7 10.9.7 10.3-1.5-.4-1.5-.1-2.1 1.1-2.1.9 0 1.5-.3 1.4-.8-.1-.4.4-2.5 1-4.7 1.5-5.2-.2-8.1-5-8.3-1.8-.1-4.9-.6-6.8-1.2-5.8-1.7-8.8-1.3-9.2 1.2-.3 2.4-3.6 3.4-4.5 1.2-.6-1.6-3.9-1.9-4.8-.4-.4.6-1.1.8-1.6.5-1-.7-13.5 2-19.2 4.1-3.5 1.3-3.9 1.3-5.9-.6l-2.2-2h3c3.5 0 13.4-2.7 14.9-4.1 1-1 0-1-6.5.2zm0 18c0 .5-.7.9-1.5.9-1.5 0-2-1.2-.9-2.3.8-.8 2.4.1 2.4 1.4zm20 .9c0 .6-1.3.9-3 .8-1.6-.1-3-.6-3-1s1.4-.8 3-.8c1.7 0 3 .5 3 1zm1 9.4c0 .2-1.8.6-4 .8-2.2.2-4 0-4-.4 0-.5 1.8-.8 4-.8s4 .2 4 .4zm86 33.5c0 1.2-2 2.5-2.7 1.8-.7-.7.6-2.7 1.8-2.7.5 0 .9.4.9.9zm-146 21c0 .9-5.2 2.2-6 1.5-.7-.7 2.3-2.4 4.3-2.4.9 0 1.7.4 1.7.9zm1 2.5c0 .3-.4.8-1 1.1-.5.3-1 .1-1-.4 0-.6.5-1.1 1-1.1.6 0 1 .2 1 .4zM9 366c0 .5-.8 1-1.7 1-1.5 0-1.6-.2-.3-1 1.9-1.2 2-1.2 2 0zm95 3c0 .5-.4 1-1 1-.5 0-1-.5-1-1 0-.6.5-1 1-1 .6 0 1 .4 1 1zm-48.3 4.6c-.3.3-1.2.4-1.9.1-.8-.3-.5-.6.6-.6 1.1-.1 1.7.2 1.3.5zM339.1 197.9c-1.4 2.5-1.4 6.1-.1 6.1.6 0 1-.7 1-1.6 0-.8.5-1.2 1-.9.6.3 1-.5 1-1.9 0-3.2-1.6-4.2-2.9-1.7zM440.4 197.5c-1.7 1.3-1.6 1.4 1.4.4 3.3-1.1 4.1-1.9 1.9-1.9-.7 0-2.2.7-3.3 1.5z"/><path d="M182.6 199.6c.4 1.6 1.5 3.7 2.5 4.7 1.1 1 1.9 2.1 1.9 2.5 0 .4 1.8.7 4 .7 3.8.1 5.4-1.5 3-3-.5-.3-1-.1-1 .4 0 .6-.7 1.1-1.5 1.1s-1.2-.6-.9-1.4c.4-.9-.6-1.6-3.1-2-2.5-.5-3.5-1.1-3.1-2.1.2-.7-.2-1.9-1-2.6-1.3-1.1-1.4-.9-.8 1.7zM186.5 199c.3.5 1.8 1 3.2 1 3.2 0 2.8-.5-1-1.4-1.9-.4-2.6-.3-2.2.4zM353.6 198.8c-.3.6-.1 1.4.5 1.7 1.5 1 2.5-.3 1.2-1.6-.7-.7-1.3-.7-1.7-.1zM431.5 203.1c-2.8 1.9-2.8 2-.5 1.4 1.4-.4 3.2-1.3 4-2.1 2.1-2 0-1.6-3.5.7zM251 205.8c0 1.6 3.3 3.9 3.7 2.6.2-.6 1.5-.9 2.8-.6 1.5.2 2.5 0 2.5-.7 0-.6-1.3-1.1-2.9-1.1-1.6 0-3.6-.3-4.5-.6-.9-.3-1.6-.2-1.6.4zM171.5 207c-.3.5-.4 1-.1 1 .3 0-.3.9-1.5 2.1-2.5 2.5-2.4 2.5 2.4 3.2 2.9.4 3.7.2 3.7-.9 0-.9-.7-1.4-1.7-1.2-1.4.2-1.8-.4-1.7-2.5.1-2.9-.1-3.3-1.1-1.7zM177.6 209.4c.2 1.6.7 3.3 1.1 3.6 1 .9 20.3 2.2 20.3 1.4 0-.3-.5-1.4-1-2.5-.8-1.4-2.1-1.9-5.2-1.9-2.3 0-4.9-.7-5.8-1.5-.9-.8-3.5-1.6-5.7-1.8-4-.3-4.1-.3-3.7 2.7zm8.4-1c0 .3-.4.8-1 1.1-.5.3-1 .1-1-.4 0-.6.5-1.1 1-1.1.6 0 1 .2 1 .4zM419.6 211.5c-1.1.8-1.5 1.5-.9 1.5s1.6-.7 2.3-1.5c1.6-1.9 1.1-1.9-1.4 0zM353.5 219c-1.6.7-1.7.9-.3.9.9.1 2-.4 2.3-.9.7-1.1.7-1.1-2 0zM282 230c0 .5 1 1.5 2.3 2.1 2.2 1.2 2.2 1.2.3-1-2.1-2.3-2.6-2.6-2.6-1.1zM316.6 232.6c-1 2.5.1 2.9 1.4.5.6-1.2.7-2.1.1-2.1-.5 0-1.2.7-1.5 1.6zM320.7 234.7c-1.2 1.2-.7 3.1.9 3.7 1.2.4 1.5.2 1-.9-.3-.8-.1-1.5.4-1.5.6 0 1-.5 1-1 0-1.1-2.3-1.4-3.3-.3zM272 244c0 1.1-.4 2-.9 2s-1.8 2.2-2.9 4.8c-1.2 2.7-2.8 5.5-3.7 6.2-.8.7-1.5 1.9-1.5 2.6 0 .8-.4 1.4-1 1.4-.5 0-1 1.1-1 2.5 0 1.6-.6 2.5-1.5 2.5s-3.5 4.2-6.7 10.6c-2.9 6.1-5.9 10.9-6.8 11.1-1.5.4-10 13.3-10 15.1.1 1.7 5.4 4.4 8.8 4.5 4.4.1 8.4-1.1 7.7-2.3-.5-.8 2.4-2.5 3.9-2.1.5.1.6-.5.2-1.4-.3-.9-.2-1.3.4-1 .6.3 1-.1 1-.9 0-.9.4-1.6 1-1.6.5 0 .7.8.5 1.7-.3 1 .4 0 1.4-2.2 1.8-3.6 1.9-4.1.5-5.2-1.3-1-1-1.4 2-2.8 2-1 3.6-2.2 3.6-2.7s2.2-5.5 4.9-11.1C281 256.6 282 254.3 282 252v-2.2l-2 2.3-1.9 2.4.2-3.1c.1-2.1.6-3 1.5-2.7 2 .8 1.4-.9-1.5-3.9-3.2-3.3-6.3-3.7-6.3-.8zM328.4 243.4c-.3.8.3 2.4 1.3 3.5l1.9 2 .1-2.1c.1-1.1-.5-2.7-1.3-3.5-1.2-1.3-1.5-1.3-2 .1zM252.2 258.6c-1.4 3.5-5.4 9.4-6.3 9.4-.5 0-.9.6-.9 1.3 0 1.6-6.1 9.7-7.3 9.7-.5 0-.6-.8-.3-1.8.4-1-.2-.7-1.4.8-1.1 1.4-1.9 3.4-1.7 4.5.1 1.1-.6 2.8-1.6 3.8-1.9 1.9-1.9 1.8-1.2-.5.9-2.8.7-2.6-4.1 4.2-2.1 3-8 11.5-13.2 18.9-5.1 7.3-9.1 13.6-8.8 13.9.7.6 9.6-2.7 9.6-3.7 0-.7 6.1-10.7 7.7-12.6 3.2-3.8 7.1-10.4 6.5-10.9-.3-.4-.2-1 .3-1.4 2.7-1.9 21.9-29.4 23.5-33.7 1.2-3.1.5-4.9-.8-1.9zM281.1 264c-1.3 2.3-1.7 4-1.1 4 1.1 0 4.5-6.9 3.7-7.6-.2-.2-1.4 1.4-2.6 3.6zM303 268c0 .5.5 1 1.1 1 .5 0 .7-.5.4-1-.3-.6-.8-1-1.1-1-.2 0-.4.4-.4 1zM378.1 271.2c-.1.9-.4 2.3-.7 3.2-.4 1 .1 1.8 1.2 2.3 1.1.4 2.6 1.4 3.4 2.2 1.3 1.3 1.3 1.4-.2.8-1-.3-1.8-.2-1.8.4 0 1.3 8.5 4.9 11.6 4.9 1.4 0 2.3-.3 2.1-.8-.3-.4 1.1-.7 3.1-.8 7.2-.2 9.2-.7 8-2.2-1.6-1.8-8.8-5.5-11.5-5.8-2.5-.3-2.9.6-1.1 2.4.9.9.9 1.5 0 2.4-.8.8-1.6.5-3.1-1.3-1.4-1.7-2.1-2-2.1-.9-.1.9-1.2.2-3-2-1.7-1.9-3-2.9-3-2.2 0 .7-.5 1.2-1.1 1.2-.5 0-.8-.3-.6-.8.3-.4.1-1.6-.4-2.7-.6-1.6-.8-1.7-.8-.3zM459 271c0 .5-.9 1-2 1s-3.7.6-5.7 1.4c-2.1.8-6.5 2.2-9.8 3.1-3.3 1-6.4 2.1-6.9 2.6s2.7 2.6 7.3 4.8c4.5 2.2 8.8 4.4 9.4 5 .7.5 2.9 1.2 5 1.6l3.7.7v-10.6c0-5.8-.2-10.6-.5-10.6s-.5.4-.5 1zM102.5 272c-1.3.6-1.5.9-.5.9.8 0 2.2-.4 3-.9 1.8-1.2.2-1.2-2.5 0zM276 274.5c-2.2 2.7-6.9 13.5-5.8 13.2 2.8-.5 4.7-3.1 4.2-5.4-.4-1.6-.2-2.3.6-2.1 1.5.4 4.4-5.9 3.1-6.6-.5-.3-1.4.1-2.1.9zM296.6 275.6c-.9.9-1.4 1.9-1.1 2.2.3.3 1.3-.2 2.2-1.1.9-.9 1.4-1.9 1.1-2.2-.3-.3-1.3.2-2.2 1.1zM405 288c-3 1.1-5.6 2-5.8 2-.2 0 0 .4.3 1 .3.5.1 1-.5 1s-.8.5-.5 1c.4.6 1 .8 1.5.5.4-.3 1-.1 1.2.4.3.8 11.6-.6 19.7-2.4l2.3-.6-2.3-2c-1.3-1.1-2.9-1.7-3.6-1.4-.8.2-1.1 0-.8-.5 1-1.7-5.6-1.1-11.5 1zM267.1 293.1c-2 2.2-1.8 4.9.3 4.9 1.1 0 2-1.2 4.4-6.3.8-1.6-2.9-.6-4.7 1.4zM447.8 291.7c.7.3 1.6.2 1.9-.1.4-.3-.2-.6-1.3-.5-1.1 0-1.4.3-.6.6zM417.1 295.2c-9.3 1.8-10.2 2.2-8.6 3.4 2 1.5 4.3 1.3 18.5-1.6 7.4-1.5 8.2-1.8 6.3-2.8-2.7-1.5-3.6-1.5-16.2 1zM329.3 294.7c-.7.2-1.3 1.1-1.3 1.8s-.6 1.6-1.2 1.8c-.7.3-.1.6 1.3.6 1.4.1 3.4-.7 4.3-1.8 1.5-1.7 1.5-1.9.1-2.5-.9-.3-1.7-.6-1.8-.5-.1 0-.8.3-1.4.6zM388.3 295.5c1.1.7 2.5 1.1 3.3.8 2.2-.8.6-2.3-2.4-2.3-2.5.1-2.6.2-.9 1.5zM396.5 299.9c-1.9.8-1.9.8.2 1.5 2.5.8 4.6 0 3.8-1.5-.7-1-1.3-1-4 0zM457.5 301c.3.5 1 1 1.6 1 .5 0 .9-.5.9-1 0-.6-.7-1-1.6-1-.8 0-1.2.4-.9 1zM385.5 303c-.8 1.3.5 1.3 2.5 0 1.3-.8 1.3-1-.2-1-.9 0-2 .4-2.3 1zM433.1 303.6c-3.5.8-6.9 1.8-7.6 2.4-.6.5-1.5.7-1.8.3-.4-.3-.7-.3-.7.2 0 1.5 3.5 3.4 6.4 3.5 1.9 0 2.7.4 2.3 1.3-.3.8.7 1.8 2.4 2.6 2.8 1.2 4 3.1 2 3.1-.5 0-3-.9-5.6-2-5-2.1-9.1-2.5-11.4-1.1-1.2.8-1 1.2 1.2 2.2 1.5.7 2.7 1.6 2.7 2.1 0 .4.5.8 1 .8.9 0 14.3 8.3 22.5 14 1.7 1.1 5.4 3.6 8.3 5.5l5.2 3.5v-33.5l-3.7-1.8c-2.1-1-4.9-2.4-6.3-3.2-3.1-1.8-8.5-1.7-16.9.1zM448 309c0 .5-.7 1-1.5 1s-1.5-.5-1.5-1c0-.6.7-1 1.5-1s1.5.4 1.5 1zm-8.5 1c.4.6-.9 1-3.2 1-2.8 0-3.4-.3-2.3-1 2-1.3 4.7-1.3 5.5 0zM233.8 307c-.3.8.1 2.3 1 3.2 1.4 1.6 1.3 1.8-.1 1.8-2.7 0-3.1.1-4.4 1.2-2.4 1.9-1.3 2.6 2.5 1.6 4.9-1.3 6.2-2.6 4.1-4.1-.9-.7-1.9-2.1-2.1-3.2-.3-1.6-.5-1.7-1-.5zM414 310c-2.4.8-2.3.8.8.9 1.7.1 3.2-.4 3.2-.9 0-1.1-.5-1.1-4 0zM403.4 317.5c.3 1-.1 1.5-1.3 1.5s2.6 4.3 10.8 12.2c6.9 6.8 14 14 15.6 16 1.7 2 3.3 3.7 3.6 3.8 1.6.1 15.4 14.4 15.1 15.6-.2.8.6 1.4 1.8 1.4 1.2 0 1.9.4 1.6.8-.3.5.6 1.5 1.9 2.2 1.4.7 2.5 1.7 2.5 2.2 0 .4.7.8 1.5.8s1.5.4 1.5 1c0 .5.5 1 1 1 .6 0 1-5.9 1-15.8v-15.8l-3.2-1.2c-1.8-.6-10.5-5.7-19.3-11.2-25.4-15.8-25.8-16-30.5-16-3.3 0-4.1.3-3.6 1.5zM388 320.8c0 .2 2.7 3 6 6.3 3.3 3.2 6 6.2 6 6.6.1.5 4.1 4.2 9 8.3 8.4 7 13 9.9 13 8.1 0-1.7-29.8-29.5-31.8-29.6-1.2-.1-2.2 0-2.2.3zM324.9 329.7c-3 2.5-6.8 5.8-8.5 7.3-3 2.7-9.4 5-9.4 3.4 0-.5 1.6-2.5 3.6-4.5 3.3-3.4 3.5-3.7 1.6-4.3-1.2-.4-3.3.1-5.3 1.3-1.9 1.1-5.4 3.1-7.9 4.4-3.2 1.7-4.5 3-4.5 4.6 0 1.6-2.2 3.6-8.4 7.9-7.1 4.8-11.7 9.5-12 12.3-.1.3 1.1.4 2.7.2l2.7-.4-2.1 1.8c-1.2 1-3.6 2.6-5.2 3.5-4.4 2.3-6.4 7.1-11.1 25.8-2.3 9.1-5.5 21.7-7.2 28-7.4 28.1-8.8 33.7-9.4 36.3l-.5 2.7h216v-49.1l-4.7-5.1c-2.7-2.7-8.8-9-13.8-13.8-4.9-4.9-13.9-13.6-19.8-19.4-7.8-7.6-11.5-10.6-13.3-10.6-1.3 0-2.4-.5-2.4-1 0-.6-.9-1-2-1-2.5 0-5.6-1.9-13.8-8.6-3.5-2.9-7.4-5.4-8.8-5.7-1.3-.2-2.4-.3-2.4-.2 0 .1 1.4 2 3.1 4.1 1.7 2.2 4.6 6.6 6.5 10 1.9 3.3 4.3 6.9 5.4 7.9 1.1 1 2 3.1 2 4.6 0 1.5.5 3.1 1 3.4.6.3 1 .1 1-.4 0-1.4 2.7-1.4 3.5-.1.6 1-1.5 5-2.8 5-.4 0-1.2-1.1-1.6-2.4-.5-1.3-1.6-2.6-2.5-2.9-.9-.4-1.3-1.3-1-2.1.3-.8-.2-1.7-1.3-2-1-.3-2.7-2-3.7-3.7-1-1.7-2-2.8-2.3-2.5-.9.9-4.5-3.2-3.8-4.3.7-1.2-4.5-11.1-5.9-11.1-1.6 0-3.5 3.4-3.6 6.2 0 1.6-.8 3.3-1.8 3.9-1.6 1-1.8 1.8-1.1 5.3.5 2.3.8 6.1.9 8.6 0 2.5 1 8.1 2.1 12.5s3.1 12.7 4.5 18.5c1.3 5.8 2.8 11.6 3.3 13 .5 1.4 1.2 4.1 1.5 6 .8 4.3-.7 2.9-2.4-2.2-1.3-4.3-3.4-5.2-2.4-1.2.5 1.8.3 2.5-.3 2.1-.6-.4-1.4-2.6-1.7-4.9-.8-4.9-4-11.5-5.3-10.8-.4.3-1.2-3.3-1.8-8-.5-4.7-1.3-9-1.6-9.5-.4-.6-1.2-4.1-1.9-7.8-.8-4.6-1.6-6.4-2.1-5.5-.6.9-.9.3-.9-1.9 0-1.7-.5-3.5-1.1-3.9-.8-.4-1 1.2-.9 5.2.1 3.3.2 6.8.1 7.9-.2 1.9-.2 1.9-1.2.2-.6-.9-1.5-1.5-2.1-1.1-.7.4-.8-.2-.3-1.7l.8-2.4-2.3 2-2.3 2 .6-4.2c.5-4.1-.6-6.7-1.6-4.1-.3.8-.6.5-.6-.6-.1-1.1-.6-1.6-1.5-1.3-2.9 1.1-2.3-2.2 1-5.7 3.4-3.6 3.4-3.7 2.8-10.4-.3-3.7-1.4-9.6-2.4-13.2-1-3.6-2.2-8.2-2.7-10.3-1.5-6.9-2.8-4-3.7 8.3-1.1 16.3-2.8 15.5-2.4-1.2l.3-13.1-2.3-.2c-1.6-.1-2.7.6-3.5 2.2-1.2 2.6-4.4 2.7-3.9.1.5-3.3-2.7-2.5-7.9 1.9zM304 343c0 .5-.4 1-.9 1-.6 0-1.3-.5-1.6-1-.3-.6.1-1 .9-1 .9 0 1.6.4 1.6 1zm-2 6c0 .5-.4 1-1 1-.5 0-1-.5-1-1 0-.6.5-1 1-1 .6 0 1 .4 1 1zm41.1 10.5c-.3 2.2-.9 3.5-1.2 3-.9-1.5.2-8.8 1.1-7.8.5.4.5 2.6.1 4.8zM351 377c0 1.1-.7 2-1.5 2-1.8 0-1.9-1.2-.3-2.8 1.6-1.6 1.8-1.5 1.8.8zm13 2.9c0 .6-.4 1.3-1 1.6-.5.3-1-.1-1-.9 0-.9.5-1.6 1-1.6.6 0 1 .4 1 .9zm-2.6 9.2c-1 1.6-2.4.9-2.4-1.2 0-1.8.2-1.9 1.5-.9.8.7 1.2 1.6.9 2.1zm1.1 5.6c.4 2.1.9 4.6 1.2 5.7.3 1.2.1 1.7-.8 1.4-.8-.3-1.4-1.6-1.5-2.9-.1-1.3-.4-3.6-.9-5.2-.4-1.7-.3-2.7.3-2.7s1.4 1.7 1.7 3.7zm-10.5 1.4c0 1.1-.4 1.8-1 1.4-.5-.3-.7-1.2-.3-2 .7-2.1 1.3-1.9 1.3.6zm32 32.9c0 .5-.2 1-.4 1-.3 0-.8-.5-1.1-1-.3-.6-.1-1 .4-1 .6 0 1.1.4 1.1 1zM296.5 329.7c-1 1.5-3.2 4-4.9 5.5-1.7 1.6-3.1 3.6-3.1 4.6 0 .9-.6 1.7-1.3 1.7-1.3 0-3.2 2.3-3.2 4 .1.5.6.3 1.3-.5.7-.8 2.1-1.7 3.2-1.8 2.1-.4 4.6-3.2 3.9-4.4-.3-.4.6-1.4 2-2.3 1.4-1 2.2-2.3 1.9-3.3-.2-.9.5-2.7 1.7-4 1.1-1.2 1.7-2.2 1.2-2.2-.6 0-1.8 1.2-2.7 2.7z"/><path d="M353.7 337c.5 6.4 2.7 16.8 3.8 17.9 1.2 1.1-1.3-17.8-2.5-19.4-.4-.6-1-1.9-1.3-3-.3-1.1-.3.9 0 4.5zM262.6 336.5c-.9 2.6-.7 3.2.5 1.2.6-1 .9-2.1.6-2.3-.2-.3-.7.2-1.1 1.1zM366.6 339.5c.4 1.1.7 2.8.8 3.8 0 1 .7 1.6 1.6 1.5 2-.4 2.6-3.8.6-3.8-.8 0-2-.8-2.6-1.8-1-1.5-1.1-1.5-.4.3zM227.9 344.9c-1.3 1-3.1 2-3.9 2.3-.8.3-1 .7-.4 1.1.6.3 2.6-.7 4.5-2.3 3.7-3.2 3.6-4.1-.2-1.1zM124.8 344.7c.7.3 1.6.2 1.9-.1.4-.3-.2-.6-1.3-.5-1.1 0-1.4.3-.6.6zM258.5 348.1c-.4.6-.5 1.2-.2 1.5.2.3.7-.2 1-1.1.7-1.7.1-2-.8-.4zM230.5 352.2c-2.7 2.2-7.2 6.1-10 8.7-4.6 4.4-7.5 6.4-13 8.9-1.1.6-7.2 5.6-13.5 11.2-13.7 12.2-16.2 14-16.8 12.2-.2-.8-1.1-.1-2.1 1.7-.9 1.7-3.5 5.8-5.8 9.2-2.4 3.4-4.3 6.4-4.3 6.8 0 .4-1.2 2.3-2.6 4.2-1.4 1.9-3.2 4.9-4.1 6.6-.9 2-2.3 3.3-3.4 3.3s-1.6.5-1.3 1.4c.7 1.9-6.4 13.8-7.9 13-.7-.4-.9-.4-.5.1.7.8-1.8 6.5-2.8 6.5-.4 0-.3-1.2 0-2.7.5-2.3.4-2.5-.4-1-.6.9-.8 2.6-.5 3.7.5 1.5.2 2-1.1 2-.9 0-2.3.8-3 1.7-1.1 1.4-1.6 1.5-2.2.5-.7-1-1.2-.9-2.4.5-.8 1-1.8 2.5-2.2 3.3-.4.8.2.4 1.4-1 2.1-2.4 2.2-2.4 3.6-.5 1.6 2.2 1.3 4-.7 4-.8 0-2 .4-2.6.8-.7.5-1.7.6-2.2.3-.5-.3-1.4.1-2.1.9-1.1 1.3 1 1.5 17.4 1.5 16.2 0 19-.2 20.4-1.7 1.6-1.6 1.7-1.6 2 0 .4 2.1 1.8 2.2 2.6.2.3-.8 1-1.5 1.6-1.5.5 0 1 .7 1 1.5s.5 1.5 1 1.5c.6 0 1-.3 1-.8 0-.4 1.6-2.5 3.6-4.7 4.8-5.3 6.8-8.4 6-9.2-.4-.4-.9.2-1.2 1.4-.4 1.6-1.2 2-2.9 1.7-1.2-.2-2.8.3-3.5 1.1-1.3 1.6-3 2-3 .7 0-.4 3.6-4.6 8.1-9.2 4.4-4.7 9.2-10.2 10.6-12.3 1.4-2 3-3.7 3.5-3.7s.6-.5.3-1c-.3-.6-.2-1 .2-1 .5 0 1.4-1.2 2-2.7.7-1.6 2-3.9 3-5.3 2.1-2.9 3-3.6-13.5 9.4-6.8 5.3-13.4 10.1-14.5 10.8-1.2.6-3.8 2.4-5.7 4-3.6 2.9-5 3.5-5 1.8 0-1 20.6-19 21.8-19 .4 0 3.1-2.3 6.1-5 3-2.8 5.8-5 6.2-5 .4 0 .9-.7 1.3-1.5.3-.8 1.7-2 3.1-2.7 1.4-.6 2.5-1.5 2.5-1.9 0-1.2-3.1.1-6.3 2.8-2.8 2.2-6.2 3.2-5.5 1.4.3-.9 8.9-7.8 16.1-13.1 2.7-1.9 5.6-4.2 6.5-5.1 5.1-5.1 12.4-16.8 12.7-20.5.2-3.7 1.3-5.6 2.6-4.8.5.3.6 1 .3 1.6-.4.7-.2.8.4.4.7-.4 1.2-2.1 1.2-3.7 0-1.7.4-2.8 1-2.4.5.3.7 0 .4-.9-.4-1.2-1.4-.7-4 2.2-1.9 2-3.4 4.3-3.4 4.9 0 .7-.7 1.3-1.5 1.3-.9 0-2 1.2-2.5 2.6-1.2 3-3.8 5.9-4.7 5.1-.7-.7 3.6-7.7 12.5-20.6 3.4-5 6.1-9.1 6-9-.2 0-2.5 1.8-5.3 4.1zM160 444.4c0 1.6-1.8 3.1-2.7 2.2-.8-.8.5-3.6 1.7-3.6.5 0 1 .6 1 1.4zm20 5.4c0 .5-1.1 1.9-2.5 3.2-2.8 2.6-3.4 1-.7-1.9 1.8-2.1 3.2-2.6 3.2-1.3zm-8.1 4.8c-1.4 1.8-2.4 1.1-1.5-1.1.3-.9 1.1-1.3 1.6-1 .8.5.7 1.1-.1 2.1zM219.4 350.4c-1 .8-1.6 1.8-1.1 2.2.4.4 1.6-.2 2.7-1.4 2.3-2.5 1.4-2.9-1.6-.8zM213.7 354.7c-2.5.6-5.7 3.4-5.7 5 0 1.4 6-1.8 8-4.3 1.3-1.4.9-1.5-2.3-.7zM186.5 359c-.3.5-1.5 1-2.6 1-1 0-2.4.9-3.1 2-.7 1.1-2.1 2-3 2-.9 0-3.3 2.1-5.3 4.6-3.9 5.3-4.6 7.8-1.2 4.7 1.2-1.1 4.8-3.7 7.9-5.8 3.2-2.1 6.4-5.1 7.2-6.6 1.4-2.7 1.4-4 .1-1.9zM200.4 361.8c-1.1 1-3.2 2.7-4.7 3.7-3 1.9-9.4 10.5-7.9 10.5 1.3 0 17.2-12 17.2-12.9 0-.5-.6-1.4-1.3-2-1-.8-1.8-.6-3.3.7zM238 364.6c-1.3 2.6-2.9 5.2-3.5 5.8-.6.6-1.6 2.2-2.2 3.6-.7 1.4-2 3.5-2.9 4.8-1.4 1.9-1.4 2.2-.2 1.7 2.2-.9 7.8-8.1 7.8-9.9 0-.9.5-1.6 1.2-1.6.6 0 .9-.3.5-.6-.3-.4.3-2.4 1.4-4.5 1.1-2.2 1.6-3.9 1.2-3.9-.5 0-1.9 2.1-3.3 4.6zM169.4 362.5c-1 .8-1.4 1.4-.9 1.4.6 0 1.9-.6 2.9-1.4 1.1-.8 1.5-1.5 1-1.5-.6 0-1.9.7-3 1.5zM148 369.1c-8.5 2.8-16.4 5.4-17.5 5.9-1.1.4-5.6 1.9-10 3.3-4.4 1.3-19.2 6.1-33 10.5-13.7 4.4-27.7 8.8-31 9.7-8.3 2.3-15.7 4.6-17.6 5.5-.9.5-3.5 1.4-5.8 2-3.4.9-4.6.8-5.9-.2-1.3-1.1-1.5-1.1-.9.4.7 2-.3 2.4-2 .7-.9-.9-2.2-.8-5.1.4-2.2.9-6.8 2.3-10.3 3.2-3.5.9-7 2.1-7.6 2.7C.3 414 0 420 0 437.1V460h39.4c21.7 0 39.6-.3 39.8-.8.2-.4 1.3-1.4 2.4-2.2 1.2-.8 4.8-3.5 8-6s6.8-5.2 8-6c2.9-2 13.6-10.1 15.1-11.4.6-.6 2.8-2.2 4.8-3.6 1.9-1.4 4.8-3.5 6.3-4.8 1.5-1.2 4.8-3.7 7.4-5.5 4.3-2.9 6.7-5.9 16.6-20.9l3.3-5.1-3.8 2.4c-2.1 1.3-9 5.8-15.3 10.1-6.3 4.3-11.7 7.3-11.9 6.7-.3-1.1 1.3-2.6 6.9-6.3 1.9-1.3 6.3-4.5 9.7-7.2 3.5-2.7 9.4-7.2 13.2-9.9 3.8-2.8 7.9-6.1 9.1-7.5 2.7-3.1 9.1-13.2 8.6-13.7-1.2-1.2-5.7 2.3-9 7.1-2.1 3.1-4.2 5.6-4.7 5.6-1.7 0-.9-3.5 1.1-4.8 3.2-1.9 2.4-3.4-1-1.7-3.1 1.6-6 2-6 .7 0-.4 1.6-1.6 3.6-2.7 1.9-1 4.5-2.7 5.6-3.6 1.1-1 2.5-1.6 3.1-1.3.7.2 1.8-.5 2.5-1.6s1.1-2 1-1.9c-.2 0-7.3 2.3-15.8 5zm-.2 20.1c-.6 1.8-2.8 2.1-2.8.4 0-.9.7-1.6 1.6-1.6.9 0 1.4.5 1.2 1.2zM167 382.9c0 .6-.7 1.1-1.5 1.1s-1.5.4-1.5.8c0 .5-1.1 1.5-2.5 2.2-1.3.7-4.4 4-6.7 7.3-2.4 3.3-4.8 6.4-5.3 7.1-.6.6-1.9 2.4-2.9 4l-1.9 2.9 3.1-1.9c8.6-5.4 18.3-13.8 21.1-18.4 1.7-2.7 2.7-5 2.2-5s-1.6-.3-2.5-.6c-.9-.3-1.6-.1-1.6.5zM253.6 395.9c-1.4 3.2-2.6 6.5-2.6 7.2 0 .8-2.3 9.3-5.1 18.9-2.8 9.6-6.2 21.7-7.5 26.8-1.3 5.1-2.6 9.8-3 10.3-.4.7.3.9 1.7.7 1.6-.2 2.5-1.2 3-3.3.4-1.7 1.3-4.8 1.9-7 1.8-6.5 3.1-11.9 3.4-14 .2-1.1.6-2.7.9-3.5 1.6-4 10.9-41.2 10.4-41.7-.2-.2-1.6 2.3-3.1 5.6z"/><path d="M205 404.1c0 .5.5.7 1 .4.6-.3 1-.8 1-1.1 0-.2-.4-.4-1-.4-.5 0-1 .5-1 1.1zM235.8 409.2c-2.5 4.5-7.7 19.9-6.3 18.8.8-.6 2-3.3 2.8-5.8.8-2.6 2.4-7.1 3.6-10 2.1-5.4 2.1-6.9-.1-3zM146.5 414.7c-10.8 8.2-15.4 12.3-17.5 15.9-2.4 3.7-4.5 4.6-3.7 1.4.4-1.6-.2-1.4-3.6 1.4-4.6 3.7-8.8 6.1-9.9 5.8-.5-.1-.8.5-.8 1.3s-.7 1.5-1.6 1.5c-1.6 0-7.9 3.4-10 5.5-.6.5-4.3 3.5-8.3 6.5l-7.3 5.5 11.3.3c8.3.2 11.5-.1 12.1-1 .6-1 .8-1 .8-.1s2.1 1.3 7.3 1.3c7 0 7.3-.1 9.4-3.3 1.2-1.7 3.1-5.1 4.3-7.4 1.2-2.3 2.8-4.7 3.6-5.4.8-.6 1.4-1.8 1.4-2.5 0-.8.5-1.4 1-1.4.6 0 1-.5 1-1.2 0-.6 3.8-6.8 8.3-13.7 12-18 11.9-17.9 2.2-10.4zM125 435.5c0 .3-.7 1.7-1.6 3-1.7 2.6-3.4 3.3-3.4 1.4 0-.5.4-.8.9-.5.5.3 1.2-.5 1.5-1.9.5-2.1 2.6-3.7 2.6-2zm-6 8.5c0 .5-.4 1-1 1-.5 0-1-.5-1-1 0-.6.5-1 1-1 .6 0 1 .4 1 1zm-3.3 5.7c-.3.3-1.1.2-1.7-.2-.9-.6-.9-1 .1-1.6 1.4-.8 2.7.7 1.6 1.8zm-4.7 6.7c0 .3-.4.8-1 1.1-.5.3-1 .1-1-.4 0-.6.5-1.1 1-1.1.6 0 1 .2 1 .4zM218 414.9c-1.4 1.6-4.7 5.7-7.5 9.2-2.7 3.4-10.3 12.5-16.7 20.1-6.5 7.7-11.8 14.4-11.8 14.9s3.3.9 7.3.9h7.4l1.7-3.9c1-2.1 2.8-4.9 4-6.2 1.2-1.4 2.1-3 1.9-3.6-.3-.7.6-2.7 2-4.5 4.3-5.9 4.1-6.4-.6-1.6-2.6 2.6-4.7 4.5-4.7 4.1 0-.3-1.5 1.3-3.2 3.5-3.5 4.4-4.8 5.1-4.8 2.7 0-.8.5-1.5 1-1.5.6 0 1-.5 1-1 0-.6 2.6-4.3 5.8-8.3 3.2-3.9 6.9-8.8 8.2-10.7 1.4-1.9 3.3-4.4 4.3-5.5 3-3.1 6.3-7.8 7-9.8.9-2.3.5-2.2-2.3 1.2zM188 442.1c0 .5.5.7 1 .4.6-.3 1-.8 1-1.1 0-.2-.4-.4-1-.4-.5 0-1 .5-1 1.1zM229.2 447.8c-1.6 4.8-1.8 6.1-.7 5.2.8-.7 1.5-2.2 1.5-3.4 0-1.2.5-2.7 1.1-3.3.6-.6.9-1.9.7-2.9-.2-1.2-1.2.6-2.6 4.4zM223.2 444.2c-.9 1.1-6.2 14.3-6.2 15.4 0 .2.9.4 2 .4 1.2 0 1.7-.5 1.4-1.3-.2-.7.7-4.4 2.1-8.1 2.5-6.8 2.8-8.9.7-6.4zM206.6 455.9c-1.8 3.5-1.9 4.1-.7 4.1 1 0 3.4-6.1 2.7-6.8-.3-.2-1.2 1-2 2.7zM225.2 457.5c.2 2.3 1.8 3.7 1.8 1.6 0-.5.3-1.6.6-2.5.4-1.1.1-1.6-1-1.6s-1.5.8-1.4 2.5z"/></svg>